<svg id="Layer_1" data-name="Layer 1" xmlns="http://www.w3.org/2000/svg" xmlns:xlink="http://www.w3.org/1999/xlink" viewBox="0 0 400 300"><defs><linearGradient id="linear-gradient" x1="158.59" y1="229.57" x2="173.72" y2="217.59" gradientUnits="userSpaceOnUse"><stop offset="0" stop-opacity="0"/><stop offset="1"/></linearGradient><linearGradient id="linear-gradient-2" x1="187.1" y1="231.62" x2="206.86" y2="220.69" xlink:href="#linear-gradient"/><linearGradient id="linear-gradient-3" x1="169.87" y1="216.95" x2="185.6" y2="207.06" xlink:href="#linear-gradient"/><linearGradient id="linear-gradient-4" x1="246.56" y1="166.52" x2="266.32" y2="153.89" xlink:href="#linear-gradient"/><linearGradient id="linear-gradient-5" x1="74.07" y1="167.15" x2="98.79" y2="149.33" xlink:href="#linear-gradient"/><linearGradient id="linear-gradient-6" x1="116.21" y1="142.44" x2="135.4" y2="130.17" xlink:href="#linear-gradient"/><linearGradient id="linear-gradient-7" x1="133.43" y1="154.94" x2="152.62" y2="142.67" xlink:href="#linear-gradient"/><linearGradient id="linear-gradient-8" x1="131.82" y1="133.96" x2="151.01" y2="121.69" xlink:href="#linear-gradient"/><linearGradient id="linear-gradient-9" x1="166.98" y1="157.99" x2="199.48" y2="137.21" xlink:href="#linear-gradient"/></defs><title>-</title><polyline points="39.52 171.31 181.17 255.69 288.05 196.95 360.48 155.5 221.31 75.15" fill="#c9c9c9"/><polygon points="39.52 171.31 181.52 252.31 280.52 196.31 356.52 126.31 219.52 44.31 150.52 107.31 39.52 171.31" fill="#fff3d9"/><polygon points="52.48 169.44 182.87 243.81 273.78 192.39 343.57 128.11 217.76 52.81 154.41 110.67 52.48 169.44" fill="#68e1fd"/><polygon points="217.76 52.81 154.41 110.67 273.78 192.39 343.57 128.11 217.76 52.81" opacity="0.1"/><polyline points="320.54 114.33 298.6 132.49 241.93 118.6 145.48 180.97 138.06 218.25 123.6 210.01 134.01 173.52 238.2 102.39 294.13 117.59 305.84 105.53" fill="#f9efd7"/><line x1="315.3" y1="111.19" x2="313.33" y2="112.73" fill="none" stroke="#f7931e" stroke-linecap="round" stroke-miterlimit="10" stroke-width="3"/><line x1="307.78" y1="117.07" x2="301.05" y2="122.33" fill="none" stroke="#f7931e" stroke-linecap="round" stroke-miterlimit="10" stroke-width="3" stroke-dasharray="5.03 7.04"/><polyline points="298.27 124.5 296.31 126.04 293.91 125.32" fill="none" stroke="#f7931e" stroke-linecap="round" stroke-miterlimit="10" stroke-width="3"/><line x1="287.46" y1="123.38" x2="246.42" y2="111.05" fill="none" stroke="#f7931e" stroke-linecap="round" stroke-miterlimit="10" stroke-width="3" stroke-dasharray="4.81 6.74"/><polyline points="243.19 110.08 240.8 109.36 238.75 110.8" fill="none" stroke="#f7931e" stroke-linecap="round" stroke-miterlimit="10" stroke-width="3"/><line x1="232.69" y1="115.04" x2="194.17" y2="142" fill="none" stroke="#f7931e" stroke-linecap="round" stroke-miterlimit="10" stroke-width="3" stroke-dasharray="5.28 7.4"/><line x1="191.14" y1="144.12" x2="189.09" y2="145.55" fill="none" stroke="#f7931e" stroke-linecap="round" stroke-miterlimit="10" stroke-width="3"/><ellipse cx="187.36" cy="146.41" rx="16.4" ry="7.39" fill="none" stroke="#39b54a" stroke-miterlimit="10" stroke-width="2"/><path d="M216,89.33q0-.45-.06-.89c-.79-9.69-7.25-18.12-15.95-22.21a26.22,26.22,0,0,0-36.61,17.94c-2,9.19,1.25,18.5,4.64,26.95a178.93,178.93,0,0,0,20.27,37.26,216.11,216.11,0,0,0,12.22-18.89C207.67,117.29,216.85,104.1,216,89.33Z" fill="#e55151"/><circle cx="189.12" cy="90.98" r="15.95" fill="#fff"/><polyline points="224.17 130.08 238.2 171.65 296.3 171.65 290.65 176.85 234.84 176.85 219.38 133.18" fill="#f9efd7"/><polygon points="217.76 52.81 238.2 102.39 245.59 104.4 225.89 57.68 217.76 52.81" fill="#f9efd7"/><polyline points="106.02 137.72 148.06 165.42 153.35 160.32 110.79 134.35" fill="#f9efd7"/><path d="M74.11,181c-.37.6,51-30.64,51-30.64l42-27.41-3.65-20.53-2.2,2,3.38,17.6L70.72,179.84" fill="#f9efd7"/><ellipse cx="92.89" cy="157.54" rx="8.5" ry="3.89" fill="#b3b3b3"/><path d="M145.48,181s53.65-9.87,68,13.46,4.25,29.65,4.25,29.65l9.13-5.17s.48-27.71-26.28-39.07-50-4.74-50-4.74" fill="#f9efd7"/><path d="M152.81,226.67c.57-.28,16.59-5.94,16.59-5.94l3,5.38-9.74,6.21Z" opacity="0.28" fill="url(#linear-gradient)"/><path d="M177.16,231.71c.57-.28,22-8.12,22-8.12l2.41,2.51-15.42,11.43Z" opacity="0.28" fill="url(#linear-gradient-2)"/><path d="M162,214.3c.91-.45,24.16-8.68,24.16-8.68l2.9,4.75-17.73,13.22Z" opacity="0.28" fill="url(#linear-gradient-3)"/><rect x="184.87" y="177.84" width="5" height="33.17" rx="2.01" ry="2.01" fill="#bc532a"/><path d="M199.72,184.63c-1.15-5-6.28-27.06-15.36-20.58-4.65,3.32-6,8.51-7.83,13.59a40.47,40.47,0,0,0-2.89,13.14c-.15,9.18,9.19,10.3,16.33,10.27,4.12,0,10-2.45,11-6.92.58-2.7-.41-5.88-1-8.52Z" fill="#2c9135"/><path d="M200.16,185.6l-.22-1c-1-4.43-5.15-22.18-12.37-21.75,2.14,9.36,5.31,19.25,3.62,28.83a21.91,21.91,0,0,1-3.82,9.27c1,0,1.91.06,2.82.06,4.12,0,10-2.45,11-6.92C201.72,191.43,200.73,188.24,200.16,185.6Z" fill="#156819"/><rect x="198.12" y="203.72" width="3.49" height="23.13" rx="1.74" ry="1.74" fill="#bc532a"/><path d="M208.48,208.45c-.81-3.49-4.38-18.87-10.71-14.35-3.24,2.32-4.16,5.93-5.46,9.47a28.21,28.21,0,0,0-2,9.16c-.1,6.4,6.41,7.18,11.39,7.16,2.87,0,7-1.71,7.64-4.83.4-1.88-.28-4.1-.69-5.94Z" fill="#2c9135"/><path d="M208.78,209.13l-.15-.68c-.71-3.09-3.59-15.47-8.62-15.16,1.5,6.53,3.7,13.42,2.52,20.1a15.28,15.28,0,0,1-2.66,6.47c.67,0,1.33,0,2,0,2.87,0,7-1.71,7.64-4.83C209.87,213.19,209.18,211,208.78,209.13Z" fill="#156819"/><rect x="168.1" y="195.14" width="4.78" height="31.71" rx="2.01" ry="2.01" fill="#bc532a"/><path d="M182.31,201.63c-1.1-4.78-6-25.87-14.68-19.67-4.45,3.17-5.71,8.14-7.48,13a38.68,38.68,0,0,0-2.77,12.56c-.14,8.77,8.78,9.85,15.61,9.81,3.94,0,9.55-2.34,10.47-6.62.55-2.58-.39-5.62-.94-8.14Z" fill="#2c9135"/><path d="M182.72,202.56l-.21-.93c-1-4.23-4.92-21.21-11.82-20.79,2.05,8.95,5.07,18.4,3.46,27.56a20.94,20.94,0,0,1-3.65,8.87c.92,0,1.82.06,2.69.06,3.94,0,9.55-2.34,10.47-6.62C184.22,208.12,183.27,205.08,182.72,202.56Z" fill="#156819"/><path d="M257.49,158.08c-6.4,2.34-15.7,5.75-16.08,5.94l9,5.82,10.38-7.69A12.3,12.3,0,0,1,257.49,158.08Z" opacity="0.28" fill="url(#linear-gradient-4)"/><path d="M260.7,162.51l.12-.13v-41h-5.36v41.06A4.54,4.54,0,0,0,260.7,162.51Z" fill="#d3894c"/><polygon points="258.14 135.44 249.27 140.84 246.17 139.04 247.44 135.04 256.03 130.05 258.14 135.44" fill="#d3894c"/><polygon points="256.03 131.07 248.24 135.72 246.85 139.44 249.27 140.84 255.89 136.81 256.03 131.07" fill="#c66b28"/><polyline points="258.72 126.48 266.12 122.57 269.5 124.66 266.12 128.17 260.98 129.32" fill="#d3894c"/><path d="M260.7,162.51l.12-.13v-41h-2.4v41.91A4.52,4.52,0,0,0,260.7,162.51Z" fill="#c66b28"/><polyline points="258.42 127.93 267.66 123.31 269.5 124.66 268.8 127.47 259.83 132.54" fill="#c66b28"/><ellipse cx="258.14" cy="121.4" rx="2.68" ry="1.36" fill="#eaa068"/><path d="M69.87,164c.57-.28,22-8.12,22-8.12l2.41,2.51L78.89,169.84Z" opacity="0.28" fill="url(#linear-gradient-5)"/><path d="M94.44,158.29l.07-.13v-41H91.27v41.06A1.92,1.92,0,0,0,94.44,158.29Z" fill="#e6e6e6"/><path d="M94.44,158.29l.07-.13v-41H93.06v41.91A2.17,2.17,0,0,0,94.44,158.29Z" fill="#b3b3b3"/><ellipse cx="92.89" cy="117.18" rx="1.62" ry="1.36" fill="#dddaa5"/><ellipse cx="93.13" cy="118.32" rx="10.74" ry="9.43" transform="translate(-43.38 181.86) rotate(-76.75)" fill="#ca4050"/><ellipse cx="93.41" cy="118.45" rx="8.88" ry="7.8" transform="translate(-43.29 182.24) rotate(-76.75)" fill="#fff"/><path d="M97.82,110.21l-9.27,15.47s1.44,3.8,2.15,2.13,9.38-15.94,9.38-15.94Z" fill="#ca4050"/><path d="M127.46,134.35c-6.4,2.34-15.7,5.75-16.08,5.94l8.17,5.27,9.76-8.53C127.93,135.92,128.26,135.93,127.46,134.35Z" opacity="0.28" fill="url(#linear-gradient-6)"/><path d="M144.68,146.84c-6.4,2.34-15.7,5.75-16.08,5.94l8.17,5.27,9.76-8.53C145.14,148.42,145.48,148.42,144.68,146.84Z" opacity="0.28" fill="url(#linear-gradient-7)"/><path d="M143.07,125.86c-6.4,2.34-15.7,5.75-16.08,5.94l8.17,5.27,9.76-8.53C143.53,127.44,143.87,127.44,143.07,125.86Z" opacity="0.28" fill="url(#linear-gradient-8)"/><rect x="143.37" y="139.66" width="3.74" height="10.66" rx="1.87" ry="1.87" fill="#bc532a"/><circle cx="145.24" cy="139.66" r="7.18" fill="#9cd861"/><path d="M145.24,132.48a7.2,7.2,0,0,0-1.21.11,8.41,8.41,0,0,1,4.22,8.35,7.09,7.09,0,0,1-4.55,5.74,7.18,7.18,0,1,0,1.53-14.19Z" fill="#54ba56"/><rect x="124.64" y="124.8" width="4.67" height="13.33" rx="1.87" ry="1.87" fill="#bc532a"/><circle cx="126.97" cy="124.8" r="8.98" fill="#9cd861"/><path d="M127,115.82a9,9,0,0,0-1.51.14,10.51,10.51,0,0,1,5.28,10.44,8.86,8.86,0,0,1-5.69,7.17A9,9,0,1,0,127,115.82Z" fill="#54ba56"/><rect x="141.84" y="118.33" width="3.74" height="10.66" rx="1.87" ry="1.87" fill="#bc532a"/><circle cx="143.7" cy="118.33" r="7.18" fill="#9cd861"/><path d="M143.7,111.15a7.2,7.2,0,0,0-1.21.11,8.41,8.41,0,0,1,4.22,8.35,7.09,7.09,0,0,1-4.55,5.74,7.18,7.18,0,1,0,1.53-14.19Z" fill="#54ba56"/><path d="M185.53,143.12c-10.7,4.32-26.25,10.63-26.88,11l13.65,9.73,16.32-15.75C186.31,146,186.86,146,185.53,143.12Z" opacity="0.28" fill="url(#linear-gradient-9)"/></svg>