<svg xmlns="http://www.w3.org/2000/svg" xmlns:xlink="http://www.w3.org/1999/xlink" viewBox="0 0 400 300"><defs><linearGradient id="linear-gradient" x1="1908.27" y1="141.01" x2="1871.65" y2="181.17" gradientTransform="translate(-1717.57)" gradientUnits="userSpaceOnUse"><stop offset="0" stop-color="#78b46a"/><stop offset="0.03" stop-color="#7f3500"/><stop offset="1" stop-color="#fff"/></linearGradient><linearGradient id="linear-gradient-2" x1="1963.49" y1="173.28" x2="1926.88" y2="213.44" xlink:href="#linear-gradient"/><linearGradient id="linear-gradient-3" x1="175.71" y1="195.31" x2="133.27" y2="219.97" gradientTransform="matrix(1, 0, 0, 1, 0, 0)" xlink:href="#linear-gradient"/></defs><title>ZZ</title><g style="isolation:isolate"><g id="Layer_2" data-name="Layer 2"><path d="M200.16,263.7l149.21-88.19c4.75-2.67,8.83-7,4.19-9.92L203.82,79.29c-2.25-1.39-5.66-2.3-7.94-1L39.25,169.22c-4.75,2.76-5.6,10.46-.85,13.22l142.1,81.12A19.84,19.84,0,0,0,200.16,263.7Z" fill="#225870"/><path d="M168.06,144.64l-29.59,22.3s12.26,18.08,22.92,22.56l40.86-29.8" opacity="0.46" fill="url(#linear-gradient)" style="mix-blend-mode:multiply"/><path d="M223.29,176.91l-29.59,22.3s12.26,18.08,22.92,22.56L257.48,192" opacity="0.46" fill="url(#linear-gradient-2)" style="mix-blend-mode:multiply"/><polygon points="65.23 95.39 65.23 174.74 184.07 106.54 184.07 27.02 65.23 95.39" fill="#68e1fd"/><polygon points="65.23 95.39 65.23 174.74 184.07 106.54 184.07 27.02 65.23 95.39" fill="#225870" opacity="0.28"/><polygon points="329.33 99.05 329.33 178.39 210.49 110.19 210.49 30.67 329.33 99.05" fill="#68e1fd"/><path d="M90.45,102.52c8.91-4.76,8.71,8.51,8.7,9.21l-17.7,10.49C81.45,121.47,81.53,107.28,90.45,102.52Z" fill="#ffb66e"/><path d="M90.42,91.17c2.66-1.42,4.78,0,4.75,3.14a10.35,10.35,0,0,1-4.86,8.28c-2.66,1.42-4.79,0-4.76-3.14A10.36,10.36,0,0,1,90.42,91.17Z" fill="#ffb66e"/><path d="M126.48,82.19c8.91-4.76,8.71,8.52,8.7,9.22l-17.92,10.11C117.27,100.79,117.57,87,126.48,82.19Z" fill="#ffdb7b"/><path d="M126.45,70.85c2.66-1.42,4.79,0,4.76,3.14a10.36,10.36,0,0,1-4.86,8.27c-2.66,1.42-4.79,0-4.76-3.13A10.36,10.36,0,0,1,126.45,70.85Z" fill="#ffdb7b"/><path d="M159.77,62.66c8.91-4.76,8.71,8.52,8.7,9.22l-17.22,9.74C151.23,80.91,150.85,67.42,159.77,62.66Z" fill="#d9e021"/><path d="M159.74,51.32c2.66-1.42,4.79,0,4.76,3.14a10.36,10.36,0,0,1-4.86,8.27c-2.66,1.42-4.79,0-4.76-3.13A10.36,10.36,0,0,1,159.74,51.32Z" fill="#d9e021"/><path d="M112.2,121.75c8.91-4.76,8.71,8.52,8.7,9.22l-17.48,9.94C103.41,140.18,103.29,126.51,112.2,121.75Z" fill="#abffab"/><path d="M112.17,110.41c2.66-1.42,4.79,0,4.76,3.13a10.36,10.36,0,0,1-4.86,8.28c-2.66,1.42-4.78,0-4.75-3.14A10.35,10.35,0,0,1,112.17,110.41Z" fill="#abffab"/><path d="M146.79,102.23c8.91-4.76,8.71,8.52,8.7,9.22l-17.92,10.16C137.58,120.88,137.87,107,146.79,102.23Z" fill="#fff"/><path d="M146.76,90.88c2.66-1.42,4.79,0,4.76,3.14a10.36,10.36,0,0,1-4.86,8.28c-2.66,1.42-4.79,0-4.76-3.14A10.36,10.36,0,0,1,146.76,90.88Z" fill="#fff"/><path d="M232.92,60.45a14.65,14.65,0,0,1,2.6,7.6,5,5,0,0,1-.85,3.55,2,2,0,0,1-2.48.44,3.91,3.91,0,0,1-1.34-.9A4.86,4.86,0,0,1,230,70l-.24-.47a1.83,1.83,0,0,1-.24.33,1.71,1.71,0,0,1-.81.36,2.48,2.48,0,0,1-1.48-.17,5.57,5.57,0,0,1-2.62-2.36,7.54,7.54,0,0,1-1.18-3.8,3.74,3.74,0,0,1,.93-3,2.14,2.14,0,0,1,2.43-.38,3.54,3.54,0,0,1,1.08.68,4.15,4.15,0,0,1,.72.79l.19.32,0-.89,2,.77.2,5.63a2.26,2.26,0,0,0,.37,1.13,1.72,1.72,0,0,0,.82.73q1.45.57,1.34-2.51a10.82,10.82,0,0,0-1.93-5.65,9.49,9.49,0,0,0-4.43-3.78,3.74,3.74,0,0,0-4.16.53A5.68,5.68,0,0,0,221.37,63a12,12,0,0,0,1.95,6,9.26,9.26,0,0,0,4.32,3.87,5.23,5.23,0,0,0,2,.4A2.8,2.8,0,0,0,230.9,73l.4-.23,1.21,2.25a.92.92,0,0,1-.19.15,4.44,4.44,0,0,1-.59.28,4.26,4.26,0,0,1-1,.28,5,5,0,0,1-1.33,0,6.74,6.74,0,0,1-1.69-.43,11,11,0,0,1-4-2.94,17.51,17.51,0,0,1-3.1-4.83,14.84,14.84,0,0,1-1.29-5.38,8.61,8.61,0,0,1,.93-4.5,5.13,5.13,0,0,1,2.83-2.5,5.54,5.54,0,0,1,3.95.2A12.77,12.77,0,0,1,232.92,60.45Zm-4.42,7.11a1.92,1.92,0,0,0,.42-1.47,3.73,3.73,0,0,0-.54-1.85,2.51,2.51,0,0,0-1.2-1.11,1.09,1.09,0,0,0-1.23.16,1.81,1.81,0,0,0-.44,1.45,3.71,3.71,0,0,0,.57,1.85,2.69,2.69,0,0,0,1.27,1.14,1,1,0,0,0,1.16-.18" fill="#fff"/><path d="M293.78,95.25a128.25,128.25,0,0,1-10.67,8.16v31.38l33.06,19.41V108.7Z" fill="none" stroke="#f2f2f2" stroke-miterlimit="10" stroke-width="2"/><path d="M283.11,103.4l9.72,5.11s1-13.21,1-13.27" fill="none" stroke="#f2f2f2" stroke-miterlimit="10" stroke-width="2"/><path d="M286.67,113l24.81,14.28a1.13,1.13,0,0,0,1.14-1.94L287.8,111.07a1.13,1.13,0,0,0-1.14,1.94Z" fill="#f2f2f2"/><path d="M286.67,119.43l24.81,14.28a1.13,1.13,0,0,0,1.14-1.94L287.8,117.49a1.13,1.13,0,0,0-1.14,1.94Z" fill="#f2f2f2"/><path d="M286.67,125.31l24.81,14.28a1.13,1.13,0,0,0,1.14-1.94L287.8,123.36a1.13,1.13,0,0,0-1.14,1.94Z" fill="#f2f2f2"/><path d="M246,83.84a88.09,88.09,0,0,1-7.33,5.6V111l22.71,13.34V93.08Z" fill="none" stroke="#f2f2f2" stroke-miterlimit="10" stroke-width="2"/><path d="M238.63,89.44,245.3,93s.7-9.07.65-9.12" fill="none" stroke="#f2f2f2" stroke-miterlimit="10" stroke-width="2"/><path d="M240.89,96.35l17,9.81a1.13,1.13,0,0,0,1.14-1.94l-17-9.81a1.13,1.13,0,0,0-1.14,1.94Z" fill="#f2f2f2"/><path d="M240.89,100.76l17,9.81a1.13,1.13,0,0,0,1.14-1.94l-17-9.81a1.13,1.13,0,0,0-1.14,1.94Z" fill="#f2f2f2"/><path d="M240.89,104.79l17,9.81a1.13,1.13,0,0,0,1.14-1.94l-17-9.81a1.13,1.13,0,0,0-1.14,1.94Z" fill="#f2f2f2"/><path d="M257.48,86.12s.28-.24.78-.62" fill="none" stroke="#f2f2f2" stroke-linecap="round" stroke-miterlimit="10" stroke-width="2"/><path d="M261.74,83.35c3.24-1.65,7.9-3.09,12.52-1.23,5.55,2.24,9.25,7.48,11.09,10.71" fill="none" stroke="#f2f2f2" stroke-linecap="round" stroke-miterlimit="10" stroke-width="2" stroke-dasharray="2.05 4.09"/><path d="M286.31,94.64c.28.57.42.91.42.91" fill="none" stroke="#f2f2f2" stroke-linecap="round" stroke-miterlimit="10" stroke-width="2"/><path d="M171.79,93.28a.39.39,0,0,0,0,.26,3.94,3.94,0,0,1-.51,2.48.33.33,0,0,0,0,.23,3.46,3.46,0,0,1-1,2.71l-1.63,1.12-1.63,1.1a.73.73,0,0,1-.86.06l-.08,0c0,.13,0,.24,0,.34a1.38,1.38,0,0,1-.44,1.09l-2.12,1.45c-.25.17-.42,0-.41-.51l.17-7.74a1.39,1.39,0,0,1,.44-1.08l2.13-1.45c.19-.13.33-.08.39.22l0,.08,0,0,.08-.29c.39-1.52.78-3.06,1.18-4.58a3.56,3.56,0,0,0,.08-1c0-.73,0-1.44,0-2.16l0-.18a2,2,0,0,1,.61-.85.44.44,0,0,1,.52,0,2.29,2.29,0,0,1,.65,1.54,8.36,8.36,0,0,1,0,2.14c0,.43-.08.86-.13,1.31l.12-.08,1.9-1.3a.49.49,0,0,1,.72,0,2.56,2.56,0,0,1,.12,2l-.08.27a4.86,4.86,0,0,1,.19.54A3.87,3.87,0,0,1,171.79,93.28Zm-.17-.5a2.55,2.55,0,0,0,.22-1,.89.89,0,0,0-.23-.73c-.09-.05-.18-.08-.28-.13.09-.18.17-.34.24-.52a2.58,2.58,0,0,0,.23-1,.82.82,0,0,0-.25-.72c-.13-.08-.27,0-.43.09l-2.27,1.55-.11.08v-.17c.07-.72.14-1.46.21-2.19q0-.4,0-.75a3.72,3.72,0,0,0-.41-2,.3.3,0,0,0-.4-.16l-.06,0a.67.67,0,0,0-.13.12l0,.06,0,0a.34.34,0,0,0-.06.19c0,.65,0,1.26,0,1.88q0,.14,0,.29a5.6,5.6,0,0,1-.2,1.31q-.51,2-1,3.91a6,6,0,0,1-.48,1.39.76.76,0,0,0-.08.35l-.12,5.37c0,.17,0,.27.1.27l.11.07c.23.21.49.19.8,0l1.05-.72,2.11-1.43a.74.74,0,0,0,.15-.13,2.33,2.33,0,0,0,.45-1.31,1.57,1.57,0,0,0-.05-.49l-.1-.35.28-.3a2.28,2.28,0,0,0,.47-1.36,1.32,1.32,0,0,0-.1-.57c0-.1-.09-.2-.14-.3s.14-.17.2-.26a2.71,2.71,0,0,0,.25-.42"/><path d="M168.14,85.23l.06,0a.3.3,0,0,1,.4.16,3.72,3.72,0,0,1,.41,2q0,.35,0,.75c-.08.74-.14,1.47-.21,2.19v.17l.11-.08,2.27-1.55c.15-.1.3-.17.43-.09a.82.82,0,0,1,.25.72,2.58,2.58,0,0,1-.23,1c-.08.17-.16.34-.24.52.1,0,.19.07.28.13a.89.89,0,0,1,.23.73,2.55,2.55,0,0,1-.22,1,2.71,2.71,0,0,1-.25.42c-.06.09-.13.17-.2.26s.1.2.14.3a1.32,1.32,0,0,1,.1.57,2.28,2.28,0,0,1-.47,1.36l-.28.3.1.35a1.57,1.57,0,0,1,.05.49,2.33,2.33,0,0,1-.45,1.31.74.74,0,0,1-.15.13l-2.11,1.43-1.05.72c-.31.21-.57.23-.8,0l-.11-.07c-.09,0-.11-.09-.1-.27l.12-5.37a.76.76,0,0,1,.08-.35,6,6,0,0,0,.48-1.39q.49-2,1-3.91a5.59,5.59,0,0,0,.2-1.31q0-.14,0-.29c0-.62,0-1.23,0-1.85a.37.37,0,0,1,.06-.22l0,0,0-.06A.67.67,0,0,1,168.14,85.23Z" fill="#fff"/><path d="M151.25,189l-29.59,22.3s12.26,18.08,22.92,22.56l40.86-29.8" opacity="0.46" fill="url(#linear-gradient-3)" style="mix-blend-mode:multiply"/><polygon points="188.38 199.33 224.51 191.86 227.49 185.23 183.27 194.38 188.38 199.33" fill="#ffd2a6"/><polyline points="176.48 180.75 181.67 163.96 174.75 162.79 168.37 181.86 180.8 185.76" fill="#ffd2a6"/><ellipse cx="167.46" cy="197.79" rx="21.1" ry="12.03" fill="#2015ff"/><polyline points="146.36 197.79 146.36 190.98 188.56 190.98 188.56 197.79" fill="#2015ff"/><ellipse cx="167.46" cy="190.98" rx="21.1" ry="12.03" fill="#557cff"/><ellipse cx="184.23" cy="153.41" rx="21.1" ry="12.03" fill="#f7931e"/><polyline points="163.13 153.41 163.13 146.59 205.32 146.59 205.32 153.41" fill="#f7931e"/><ellipse cx="184.23" cy="146.59" rx="21.1" ry="12.03" fill="#ffb66e"/><ellipse cx="240.3" cy="185.91" rx="21.1" ry="12.03" fill="#2015ff"/><polyline points="219.21 185.91 219.21 179.1 261.4 179.1 261.4 185.91" fill="#2015ff"/><ellipse cx="240.3" cy="179.1" rx="21.1" ry="12.03" fill="#557cff"/><ellipse cx="167.46" cy="197.79" rx="21.1" ry="12.03" fill="#f7931e"/><polyline points="146.36 197.79 146.36 190.98 188.56 190.98 188.56 197.79" fill="#f7931e"/><ellipse cx="167.46" cy="190.98" rx="21.1" ry="12.03" fill="#ffb66e"/><ellipse cx="240.3" cy="185.91" rx="21.1" ry="12.03" fill="#f7931e"/><polyline points="219.21 185.91 219.21 179.1 261.4 179.1 261.4 185.91" fill="#f7931e"/><ellipse cx="240.3" cy="179.1" rx="21.1" ry="12.03" fill="#ffb66e"/></g></g></svg>