<svg id="Layer_1" data-name="Layer 1" xmlns="http://www.w3.org/2000/svg" xmlns:xlink="http://www.w3.org/1999/xlink" viewBox="0 0 400 300"><defs><linearGradient id="linear-gradient" x1="175.87" y1="217.18" x2="280.97" y2="153.35" gradientUnits="userSpaceOnUse"><stop offset="0" stop-opacity="0"/><stop offset="1" stop-color="#2e3192"/></linearGradient><linearGradient id="linear-gradient-2" x1="216.6" y1="195.25" x2="253.47" y2="165.06" gradientUnits="userSpaceOnUse"><stop offset="0" stop-color="gray" stop-opacity="0"/><stop offset="1" stop-color="#2e3192"/></linearGradient><linearGradient id="linear-gradient-3" x1="79.42" y1="182.08" x2="153.04" y2="120.33" xlink:href="#linear-gradient"/></defs><title>#41-50</title><path d="M43.28,195.39,158.73,262a5.08,5.08,0,0,0,5.1,0L325,168.09a5.08,5.08,0,0,0,0-8.78L207.15,90.88a5.08,5.08,0,0,0-5.09,0L39.84,184.8a5.08,5.08,0,0,0,.19,8.89Z" fill="#98a3ed"/><path d="M159.72,244.24l72.79-40.69-35.73-19.83-63.69,42.37C139.41,229.93,153.51,240.23,159.72,244.24Z" fill="url(#linear-gradient)"/><path d="M244.34,46.5s3.78,2.86,5.13,6,1.43,3.32,3.73,4.86,1.51,3,.79,4.89-1.35,2.21.32,3.87,3.49,2.86,2.22,4.61-2.33,2.06-1,4,3,2.94,2.16,4.76c0,0-14.29,2.54-23.9-.56s-4.35-9.29-4.12-9.53,4.85-13.26,4.85-13.26" fill="#994013"/><path d="M212.43,208.21l45.4-27.1-18.27-10.8L191.13,196.5C197.45,200.34,206.22,204.2,212.43,208.21Z" fill="url(#linear-gradient-2)"/><path d="M255,166s-5.45,3.2-8,1.72c0,0,1.42,11-.88,12.32s-5.77,4.08-4.7,4.79,1.33,1.51,4.53.62a34.2,34.2,0,0,0,6-2.4s.61-6,1.77-5.68.89,5.15.89,5.15l3.11-1.3Z" fill="#f7931e"/><path d="M245.4,161.17s-5.45,3.2-8,1.72c0,0,1.42,11-.88,12.32s-5.77,4.08-4.7,4.79,1.33,1.51,4.53.62a34.2,34.2,0,0,0,6-2.4s.61-6,1.77-5.68.89,5.15.89,5.15l3.11-1.3Z" fill="#f7931e"/><path d="M229.58,92.78s-.39,20.57-.17,30.27,5.47,40.39,5.47,40.39,1.82,3.25,10.4.38l1.2,6.23s10.77,2.88,16.85-3.74c0,0-3.76-46.82-4.37-52-1.21-10-8-22.6-8-22.6" fill="#68e1fd"/><path d="M239.72,102.3c-.05-.79-1.29-.79-1.23,0q2.15,30.89,6.78,61.52c.12.78,1.31.45,1.19-.33Q241.86,133,239.72,102.3Z" opacity="0.63"/><path d="M77.16,196.41l55.92-33.09-21.83-21L52.39,178.5C58.17,182,69.05,191.34,77.16,196.41Z" fill="url(#linear-gradient-3)"/><path d="M133.58,99.63V82.79c0-3.88-.49-8.37.52-12.18,1.19-4.49,6.85-10.55,11.83-6.94,2.52,1.83,2.62,5.6,2.65,8.43.05,6,0,12.09,0,18.13a1.5,1.5,0,0,0,3,0c0-7,.75-14.48-.17-21.47-1.1-8.36-9.2-11.91-16-6.1-4.57,3.91-4.83,9.83-4.83,15.37V99.63a1.5,1.5,0,0,0,3,0Z" fill="#f7931e"/><polygon points="116.57 90.15 159.14 65.72 173.01 72.24 133.22 105.07 116.57 90.15" fill="#68e1fd"/><polygon points="116.57 90.15 159.14 65.72 173.01 72.24 133.22 105.07 116.57 90.15" opacity="0.63"/><path d="M134.32,96.88c1.24-.74,38.78-24.45,38.78-24.45l12.35,62.25-52.37,28.65Z" fill="#68e1fd"/><polyline points="134.32 96.88 116.54 89.96 108.01 153.38 133.09 163.32" fill="#68e1fd"/><polyline points="134.32 96.88 116.54 89.96 108.01 153.38 133.09 163.32" opacity="0.22"/><path d="M146.92,103.5V86.66c0-3.88-.49-8.37.52-12.18,1.19-4.49,6.85-10.55,11.83-6.94,2.52,1.83,2.62,5.6,2.65,8.43.05,6,0,12.09,0,18.13a1.5,1.5,0,0,0,3,0c0-7,.75-14.48-.17-21.47-1.1-8.36-9.2-11.91-16-6.1-4.57,3.91-4.83,9.83-4.83,15.37V103.5a1.5,1.5,0,0,0,3,0Z" fill="#f7931e"/><path d="M100.8,179.83V156.47l20.91-11.68V168Z" fill="#eca016"/><path d="M100.8,156.47,80.46,144.78s-.57,23.55,0,23.93,20.35,11.12,20.35,11.12Z" fill="#ffb72f"/><polygon points="80.46 144.78 100.8 132.35 121.72 144.78 100.8 156.47 80.46 144.78" fill="#ffc863"/><polygon points="88.2 140.05 109.39 151.67 109.39 163.86 115.48 160.79 115.48 148.27 94.3 136.32 88.2 140.05" fill="#fdedcb"/><path d="M326.7,168.65a.5.5,0,0,0,0,1A.5.5,0,0,0,326.7,168.65Z" fill="#8dfcf3"/><path d="M236.22,139.7l-41.78,25.47-23,14a12.89,12.89,0,0,0-2.65,1.62c-1.23,1.34-.69-.86.53.46-1.86-2-5.8-3.41-8.14-4.79L136.61,162v2.59l41.56-29.87L190.34,126c2.07-1.49,5.47-3.09,7.08-5.09,1.21-1.51,1,.62-.52-.68a14.75,14.75,0,0,0,2.28,1.28l12.22,6.85,24.83,13.93c1.69.95,3.2-1.64,1.51-2.59l-39.35-22.07a1.48,1.48,0,0,0-1.51,0L135.1,162a1.52,1.52,0,0,0,0,2.59l32.82,19.3a1.5,1.5,0,0,0,1.51,0l68.31-41.63C239.38,141.29,237.88,138.69,236.22,139.7Z" fill="#42210b"/><line x1="168.59" y1="181.54" x2="170" y2="211.86" fill="none" stroke="#42210b" stroke-miterlimit="10"/><path d="M135.92,164.61l3.5,20.29c.69,4,.21,10.86,3.9,13.18,6.94,4.37,14.37,8.08,21.52,12.1,1.55.87,3.7,2.74,5.56,2.63,1-.06,2.29-1,3.13-1.38l45.69-20.31,8.94-4c1-.44,2.84-.86,3.63-1.61,1.07-1,1-2.71,1.22-4.13l1.8-11.23c1.42-8.85,2.73-17.73,4.25-26.57.44-2.54,1-5,1.61-7.55s0-1.64,1.69-3.56l3.89-4.37a1.52,1.52,0,0,0-.3-2.36L226,115.57l-13.28-6.8c-1.6-.82-4.26-3-6.12-3.1-2.18-.17-7.26,3.31-8.67,4.85-1.71,1.87-1.58,5.94-1.82,8.44-.72,7.25-.88,14.61-1.31,21.89l-1.55,25.89c-.12,1.93,2.88,1.92,3,0L199,121.21c.15-2.56.55-4,.8-6.84,0-.42.54-2.48,0-1.63s1-.49,1.46-.76c1.7-1.07,4-2,5.45-3.41-.76.72-1.76-.76,0,.46a32.24,32.24,0,0,0,3.9,2l12.15,6.22,21.69,11.11-.3-2.36c-1.75,2-4.41,4-5.63,6.36s-1.56,6.23-2.09,9c-1,5.29-1.72,10.67-2.57,16L230,181.14a24.5,24.5,0,0,1-.39,2.44c-.09.35,1.29-.82.12-.4-1.85.66-3.63,1.62-5.42,2.41L179,205.76l-7.51,3.34a6.35,6.35,0,0,0-1.76.78c-.67.72,1.06.63.64-.05-1.06-1.76-6.3-3.54-8-4.53l-11.74-6.6-5.05-2.84c-.47-.27-1-.52-1.42-.8-.83-.49.11.16.24.55-.9-2.71-1-6-1.51-8.76l-4-23c-.33-1.9-3.22-1.09-2.89.8Z" fill="#42210b"/><path d="M208.66,105.6s-3.65,1.24-2.3,5.54L236,125.51s4.71-.18,4.77-4.65Z" fill="#f8d55f"/><ellipse cx="146.73" cy="219.84" rx="3.08" ry="3.26" fill="#42210b"/><ellipse cx="170" cy="230.53" rx="3.08" ry="3.26" fill="#42210b"/><ellipse cx="229.42" cy="203.55" rx="3.08" ry="3.26" fill="#42210b"/><line x1="145.9" y1="169.23" x2="149.06" y2="199.6" fill="none" stroke="#42210b" stroke-miterlimit="10"/><path d="M232.5,173.84s-63,28.47-62.94,28.83l-28.5-17,54.44-31.43,37,19.58" fill="none" stroke="#42210b" stroke-miterlimit="10"/><line x1="181.16" y1="176.41" x2="182.24" y2="205.93" fill="none" stroke="#42210b" stroke-miterlimit="10"/><line x1="193.32" y1="169.23" x2="193.99" y2="200.71" fill="none" stroke="#42210b" stroke-miterlimit="10"/><line x1="208.88" y1="159.24" x2="206.86" y2="194.99" fill="none" stroke="#42210b" stroke-miterlimit="10"/><line x1="223.97" y1="150.01" x2="219.75" y2="189.26" fill="none" stroke="#42210b" stroke-miterlimit="10"/><path d="M235,158.12l-38.17-19.79S139,173.66,139,173.84l30.67,18L234.77,161" fill="none" stroke="#42210b" stroke-miterlimit="10"/><polyline points="142.86 196.11 194.76 166.73 231.04 184.24 230.42 197.51 170 226.09 147.26 214.53 160.59 206.08 158.17 176.45" fill="none" stroke="#42210b" stroke-miterlimit="10"/><path d="M210.91,126.37c-.1.88-4.85,45.81-4.85,45.81" fill="none" stroke="#42210b" stroke-miterlimit="10"/><line x1="225.82" y1="134.74" x2="220.31" y2="179.06" fill="none" stroke="#42210b" stroke-miterlimit="10"/><path d="M184.24,129.85c0,.68.89,42.33.89,42.33" fill="none" stroke="#42210b" stroke-miterlimit="10"/><path d="M171.7,137.57c.25-.18,2.12,41.93,2.12,41.93" fill="none" stroke="#42210b" stroke-miterlimit="10"/><line x1="158.36" y1="147.15" x2="161.08" y2="179.06" fill="none" stroke="#42210b" stroke-miterlimit="10"/><path d="M147.48,155c-.41.29,2,16.39,2,16.39" fill="none" stroke="#42210b" stroke-miterlimit="10"/><path d="M166.22,150.12v-9.73c0-2.24-.28-4.84.3-7,.69-2.6,4-6.1,6.83-4,1.46,1.06,1.51,3.24,1.53,4.87,0,3.49,0,7,0,10.48a.87.87,0,0,0,1.73,0c0-4.07.43-8.37-.1-12.41-.64-4.83-5.32-6.88-9.24-3.53-2.64,2.26-2.79,5.68-2.79,8.88v12.48a.87.87,0,0,0,1.73,0Z" fill="#f7931e"/><polygon points="156.38 144.64 180.99 130.52 189.01 134.29 166.01 153.26 156.38 144.64" fill="#68e1fd"/><polygon points="156.38 144.64 180.99 130.52 189.01 134.29 166.01 153.26 156.38 144.64" opacity="0.63"/><path d="M166.65,148.53c.71-.43,22.41-14.13,22.41-14.13l7.14,36-30.26,16.56Z" fill="#68e1fd"/><polyline points="166.65 148.53 156.37 144.53 151.44 181.18 165.93 186.93" fill="#68e1fd"/><polyline points="166.65 148.53 156.37 144.53 151.44 181.18 165.93 186.93" opacity="0.22"/><path d="M173.93,152.36v-9.73c0-2.24-.28-4.84.3-7,.69-2.6,4-6.1,6.83-4,1.46,1.06,1.51,3.24,1.53,4.87,0,3.49,0,7,0,10.48a.87.87,0,0,0,1.73,0c0-4.07.43-8.37-.1-12.41-.64-4.83-5.32-6.88-9.24-3.53-2.64,2.26-2.79,5.68-2.79,8.88v12.48a.87.87,0,0,0,1.73,0Z" fill="#f7931e"/><path d="M175.69,172.44l48-27.71v26.1s-48,28.64-48,27.71Z" fill="#e55a5a"/><polygon points="175.69 172.44 166.91 168.52 166.91 194.62 175.69 198.53 175.69 172.44" fill="#c13030"/><polygon points="166.91 168.55 175.69 173.83 223.72 144.73 215.69 140.2 166.91 168.55" fill="#ff9c9c"/><path d="M237.75,139.7l-.84-.47a2.44,2.44,0,0,1-.25.19,25.36,25.36,0,0,1-2.86,1.5l.23.13-39.57,24.12-23,14a13.2,13.2,0,0,0-2.64,1.6c-2-1.76-5.47-3-7.63-4.31L138.61,163.2l.05,0c-.94-.49-1.85-1.08-2.79-1.65h0l-.74.53a1.52,1.52,0,0,0,0,2.59l32.82,19.3a1.5,1.5,0,0,0,1.51,0l68.31-41.63a1.39,1.39,0,0,0,.7-1.08A1.34,1.34,0,0,0,237.75,139.7Z" fill="#42210b"/><path d="M196.92,120.23a3.82,3.82,0,0,0,.36.26A2.52,2.52,0,0,1,196.92,120.23Z" fill="#42210b"/><path d="M197.67,120.66c.75-.76.74.17,0,0Z" fill="#42210b"/><path d="M168.75,180.86c-1,1-.76-.23,0,0Z" fill="#42210b"/><path d="M169.1,181a2,2,0,0,1,.24.22C169.26,181.19,169.17,181.12,169.1,181Z" fill="#42210b"/><rect x="168.81" y="181.53" width="1" height="30.35" transform="translate(-8.92 8.04) rotate(-2.65)" fill="#42210b"/><path d="M246,125.78,226,115.57l-13.28-6.8c-1.6-.82-4.26-3-6.12-3.1-2.18-.17-7.26,3.31-8.67,4.85s-1.55,4.3-1.7,6.66c1.06,0,2.12.13,3.18.2.13-.88.26-1.81.36-3,0-.25.21-1.09.25-1.54.38-.23,1-.7,1.23-.85a43.64,43.64,0,0,0,5.14-3.14l.28.19a32.24,32.24,0,0,0,3.9,2l12.15,6.22,20,10.22a22.24,22.24,0,0,0-4.2,4.88c-1.29,2.46-1.56,6.23-2.09,9-1,5.29-1.72,10.67-2.57,16L230,181.14c-.11.67-.17,1.38-.31,2.05-1.83.66-3.61,1.61-5.39,2.4L179,205.76l-7.51,3.34c-.31.14-.87.29-1.3.49-1.37-1.68-6.2-3.34-7.87-4.28l-11.74-6.6-5.05-2.84-1.33-.75c-.76-2.6-.91-5.62-1.36-8.25l-4-23c-.33-1.9-3.22-1.09-2.89.8,1.17,6.76,2.76,13.47,3.5,20.29.45,4.13.21,10.86,3.9,13.18,6.94,4.37,14.37,8.08,21.52,12.1,1.55.87,3.7,2.74,5.56,2.63,1-.06,2.29-1,3.13-1.38l45.69-20.31,8.94-4c1-.44,2.84-.86,3.63-1.61,1.07-1,1-2.71,1.22-4.13l1.8-11.23c1.42-8.85,2.73-17.73,4.25-26.57.44-2.54,1-5,1.61-7.55s0-1.64,1.69-3.56l3.89-4.37A1.52,1.52,0,0,0,246,125.78Zm-39.65-17c-.55.06-.93-.57,0,0Z" fill="#42210b"/><path d="M208.68,105.6s-3.65,1.24-2.3,5.54L236,125.51s4.71-.18,4.77-4.65Z" fill="#f8d55f"/><ellipse cx="146.75" cy="219.84" rx="3.08" ry="3.26" fill="#42210b"/><ellipse cx="170.01" cy="230.53" rx="3.08" ry="3.26" fill="#42210b"/><ellipse cx="229.44" cy="203.55" rx="3.08" ry="3.26" fill="#42210b"/><rect x="147" y="169.15" width="1" height="30.53" transform="translate(-18.31 16.27) rotate(-5.95)" fill="#42210b"/><path d="M233.66,173.88l-27-14.29-1,.58,25.76,13.64c-3.6,1.63-17.07,7.73-30.55,13.86-23.44,10.67-29.59,13.5-31.19,14.45L142.07,185.7l16.66-9.62-1-.59L140.1,185.69l30,17.89,0-.63c3.35-1.76,42-19.33,62.63-28.64Z" fill="#42210b"/><rect x="181.22" y="176.4" width="1" height="29.54" transform="translate(-6.89 6.8) rotate(-2.1)" fill="#42210b"/><rect x="193.17" y="169.23" width="1" height="31.48" transform="translate(-3.89 4.16) rotate(-1.22)" fill="#42210b"/><rect x="189.99" y="176.62" width="35.8" height="1" transform="translate(19.28 374.64) rotate(-86.75)" fill="#42210b"/><rect x="202.14" y="169.13" width="39.48" height="1" transform="translate(29.58 372.19) rotate(-83.89)" fill="#42210b"/><path d="M221.77,150.68l-1,.59,14.07,7.29.46-.89Z" fill="#42210b"/><path d="M169.74,191.28,140,173.82c1.1-.7,3.57-2.23,6.94-4.31-.3-.2-.6-.42-.89-.63-7.54,4.66-7.53,4.77-7.48,5.06l0,.23,30.87,18.12.23.13,65.31-31-.43-.9Z" fill="#42210b"/><path d="M170,226.64l-23.74-12.06,13.81-8.76-1.47-18-15.48,8.76-.49-.87,15.89-9-.83-10.19,1-.08.79,9.73,35.28-20,36.82,17.77-.65,13.9Zm-21.72-12.16,21.74,11L230,197.19l.59-12.64L194.8,167.29l-35.23,19.94,1.56,19.1Z" fill="#42210b"/><path d="M250.8,86.1c-.21-4.18,3.27-17.72.15-20.89-.69-.35-5.52-4.09-6.22-4.42a11.41,11.41,0,0,0-7.6-1,24,24,0,0,0-8.33,3.57c-5.7,3.67-1.69,20.77.78,29.43,6.49,3.53,15.06,2.85,21.37-1C250.8,86.1,251.08,91.74,250.8,86.1Z" fill="#f7931e"/><path d="M232.46,51.62c-.21.78-.37,9.86,5.37,10.44s6.7-6.7,6.3-10.44S234.36,44.58,232.46,51.62Z" fill="#ffc358"/><path d="M232.38,55.29c.14.3,2.88-3.25,4.18-5,0,0,1.74,7.9,7,5.94a20.09,20.09,0,0,0-1.52,4.21s3.73-1.55,4.09-7.41-2.58-8.25-6.56-8.49C236.87,44.4,228.24,46.54,232.38,55.29Z" fill="#994013"/><path d="M244.22,56a1,1,0,0,0-1.32-.26,2.88,2.88,0,0,0-1.1,1.74.37.37,0,0,0,.38.47l-.2.28a.37.37,0,0,0-.07.14c-.34.29,0,.89.43.63a5.35,5.35,0,0,0,1.47-1.38C244.11,57.23,244.56,56.57,244.22,56Z" fill="#ffc358"/><path d="M211.74,111.73c1.33-2,3-3.77,4.54-5.64.82-1,1.63-2,2.47-3-.87-1.73-4.09-.13-5.32-2.19a21.88,21.88,0,0,0-5.07,4,.81.81,0,0,0-.25.47,4.57,4.57,0,0,0-1.9,1.93.87.87,0,0,0,1,1.13l.28-.07c-.23.27-.44.55-.65.84a3.43,3.43,0,0,0-.7,1.11.86.86,0,0,0,.66,1.11c-.51.73-.74,1.55.47,1.85h.08a.89.89,0,0,0,1-.28c.23-.28.49-.53.72-.81a.94.94,0,0,0,.77.91.68.68,0,0,0,1-.07l.66-.74A2.52,2.52,0,0,1,211.74,111.73Z" fill="#ffc358"/><path d="M230.27,105.66c-.74,1-4.17,7.4-5,8.33h0v0l-2.24,3.08a.68.68,0,0,0,.14,1,.94.94,0,0,0,1.05.56c-.22.29-.42.59-.64.87a.89.89,0,0,0-.07,1s0,0,0,.07c.55,1.12,1.31.72,1.91.07a.86.86,0,0,0,1.23.41,3.43,3.43,0,0,0,.94-.92c.25-.26.47-.53.69-.81,0,.1,0,.19,0,.29a.87.87,0,0,0,1.31.73,4.57,4.57,0,0,0,1.49-2.26.81.81,0,0,0,.41-.34c1.09-1.82,4.4-8.25,4.9-10.33C234.23,106.67,232.68,105.59,230.27,105.66Z" fill="#ffc358"/><polyline points="227.49 111 223.43 112.61 226.02 113.85" fill="#ffc358"/><path d="M227.49,107.12s5,4.58,9.47,3.88c0,0,9.94-17.81,11.61-24.28s3.72-19.91,0-20.9-8,2.33-9,6.61-2.19,17.77-2.19,17.77Z" fill="#f7931e"/><path d="M209.44,99.88s4.3,5.21,8.85,5.13c0,0,12.27-16.29,14.81-22.47s6.4-19.22,2.85-20.7-8.28,1.22-9.78,5.32c-2.42,6.64-3.72,14.38-7.6,20.36-1.31,2-3,3.83-4.37,5.79Z" fill="#f7931e"/><polygon points="216.97 105.24 216.97 109.65 214.34 108.4 216.97 105.24" fill="#ffc358"/><path d="M230.25,74.45a.5.5,0,0,0-1,0q-.25,8.83,0,17.66c0,.64,1,.64,1,0Q230,83.28,230.25,74.45Z" fill="#ce6d0d"/><polygon points="245.66 94.1 250.66 81.52 250.95 91.75 245.66 94.1" fill="#ce6d0d"/><path d="M240.55,77.41A74.9,74.9,0,0,1,227.68,106c-.38.52.49,1,.86.5a75.57,75.57,0,0,0,13-28.87C241.65,77,240.68,76.78,240.55,77.41Z" fill="#ce6d0d"/></svg>